<?xml version="1.0" encoding="utf-8"?>
<!-- Generator: Adobe Illustrator 26.0.3, SVG Export Plug-In . SVG Version: 6.00 Build 0)  -->
<svg version="1.1" id="Capa_1" xmlns="http://www.w3.org/2000/svg" xmlns:xlink="http://www.w3.org/1999/xlink" x="0px" y="0px"
	 viewBox="0 0 137 72.7" style="enable-background:new 0 0 137 72.7;" xml:space="preserve">
<style type="text/css">
	.st0{fill:#FFFFFF;}
</style>
<g id="Capa_2_00000043419755107490968350000008392539786445347489_">
	<g id="Capa_1-2">
		<g id="Capa_2-2">
			<g id="Capa_1-2-2">
				<path class="st0" d="M60.7,40.7l-2.2,2c-1.3-1.5-3.1-2.3-5-2.3c-3,0-5.4,2.3-5.5,5.3c0,0.1,0,0.1,0,0.2c0,1,0.2,2,0.7,2.9
					c0.5,0.8,1.2,1.5,2,2c0.9,0.5,1.9,0.7,2.9,0.7c0.8,0,1.7-0.2,2.5-0.5c0.9-0.5,1.7-1.1,2.4-1.8l2.1,2.2c-1,1-2.1,1.8-3.4,2.4
					c-1.2,0.5-2.4,0.7-3.6,0.7c-4.8,0-8.6-3.9-8.6-8.6c0-1.5,0.4-2.9,1.1-4.2c0.7-1.3,1.8-2.3,3.1-3c1.3-0.8,2.9-1.2,4.4-1.2
					C56.4,37.5,58.9,38.6,60.7,40.7L60.7,40.7z"/>
				<path class="st0" d="M63.3,37.9h3.1v10.5c0,0.6,0,1.3,0.2,1.9c0.2,0.4,0.4,0.7,0.8,0.9c0.4,0.2,0.8,0.3,1.3,0.3
					c0.5,0,1-0.1,1.4-0.4c0.4-0.2,0.7-0.6,0.8-1c0.2-0.7,0.3-1.5,0.2-2.2v-10h3.1v9.6c0.1,1.1,0,2.3-0.3,3.4c-0.2,0.7-0.5,1.3-1,1.8
					c-0.5,0.6-1.2,1-1.9,1.3c-0.7,0.3-1.5,0.4-2.3,0.4c-1.1,0-2.1-0.3-3.1-0.8c-0.8-0.5-1.5-1.2-1.9-2c-0.5-1.3-0.6-2.7-0.5-4.1
					L63.3,37.9L63.3,37.9z"/>
				<path class="st0" d="M82.8,37.9h3.1L92.1,54h-3.2l-1.3-3.4h-6.6L79.8,54h-3.2L82.8,37.9z M84.3,42.2l-2.2,5.5h4.3L84.3,42.2z"/>
				<path class="st0" d="M94.3,37.9h3V54h-3V37.9z"/>
				<path class="st0" d="M100.8,37.9h8.8v3h-5.8v2.9h5.8v3h-5.8V51h5.8v3h-8.8V37.9z"/>
				<path class="st0" d="M112.5,37.9h8.8v3h-5.8v2.9h5.8v3h-5.8V51h5.8v3h-8.8V37.9z"/>
				<path class="st0" d="M124.2,37.9h3.7c1.8-0.1,3.6,0.2,5.2,0.9c1.2,0.6,2.2,1.6,2.8,2.8c1.3,2.5,1.5,5.4,0.5,8
					c-0.4,1-1,1.9-1.7,2.6c-0.7,0.7-1.5,1.1-2.4,1.4c-1.4,0.3-2.9,0.5-4.4,0.4h-3.7L124.2,37.9z M127.3,40.9V51h1.4
					c1,0.1,2.1-0.1,3.1-0.5c0.7-0.4,1.2-0.9,1.6-1.6c0.4-0.9,0.6-1.8,0.6-2.8c0.1-1.5-0.4-2.9-1.4-4c-1.2-1-2.7-1.4-4.2-1.3h-1
					L127.3,40.9z"/>
				<path class="st0" d="M39.2,47.4c2.1,0.7,3.3,3,2.7,5.1s-3,3.3-5.1,2.7s-3.3-3-2.7-5.1c0,0,0,0,0,0l0,0
					C34.7,47.9,37,46.8,39.2,47.4z"/>
				<path class="st0" d="M41.2,40.3c-5.4,3.6-12.2,4.7-18.5,3.1C11,40.1,3,29.3,3.4,17.1c0-0.3,0.2-0.5,0.5-0.5l0,0
					c0.3,0,0.5,0.3,0.5,0.5c-0.4,11.7,7.3,22.2,18.6,25.3c11,2.9,22.3-3,26.1-13.7c0.1-0.2,0.3-0.4,0.6-0.3h0.1
					c0.3,0.1,0.4,0.4,0.3,0.6C48.3,33.6,45.3,37.6,41.2,40.3z"/>
				<path class="st0" d="M44.3,30.4c0.7-2.1,3-3.3,5.1-2.7c2.1,0.7,3.3,3,2.7,5.1c-0.7,2.1-3,3.3-5.1,2.7l0,0
					C44.8,34.8,43.6,32.6,44.3,30.4C44.3,30.4,44.3,30.4,44.3,30.4z"/>
				<path class="st0" d="M45.5,12c1.4,1.8,3.9,2.2,5.7,0.8c1.8-1.4,2.2-3.9,0.8-5.7c-1.4-1.8-3.9-2.2-5.7-0.8
					C44.5,7.6,44.2,10.2,45.5,12C45.5,12,45.5,12,45.5,12z"/>
				<path class="st0" d="M28.3,54.6c-0.1,0.1-0.3,0.1-0.5,0.1c-14-5.4-20.9-21.2-15.5-35.1C16.7,8.4,27.7,1.4,39.7,2.3
					c0.3,0,0.5,0.3,0.5,0.6c0,0.2-0.2,0.4-0.5,0.5h-0.1c-14.4-1.1-26.9,9.7-27.9,24c-0.9,11.5,5.9,22.1,16.6,26.3
					c0.3,0.1,0.4,0.4,0.4,0.7c0,0,0,0,0,0l0,0C28.5,54.5,28.5,54.6,28.3,54.6z"/>
				<path class="st0" d="M39.7,52.5L39.7,52.5c-14,5.9-30-0.5-36-14.4c-4.6-10.8-1.8-23.4,7-31.2c0.2-0.2,0.6-0.2,0.8,0.1l0,0
					c0.2,0.2,0.2,0.6-0.1,0.8c0,0,0,0,0,0c-10.9,9.6-12,26.2-2.4,37c7.5,8.5,19.6,11.3,30.1,6.8c0.3-0.1,0.6,0,0.7,0.3
					C40,52,39.9,52.3,39.7,52.5z"/>
				<path class="st0" d="M13,33.2c2.1,0.7,3.3,3,2.7,5.1c-0.7,2.1-3,3.3-5.1,2.7s-3.3-3-2.7-5.1c0,0,0,0,0,0l0,0
					C8.6,33.7,10.9,32.6,13,33.2z"/>
				<path class="st0" d="M49.2,10.1c-0.2,0.2-0.5,0.1-0.7-0.1C39-0.9,22.3-2,11.4,7.6C2.9,15.1,0.1,27.3,4.6,37.8
					c0.1,0.3,0,0.6-0.2,0.7c-0.3,0.1-0.6,0-0.7-0.2c0,0,0-0.1,0-0.1l0,0c-6-13.9,0.5-30,14.4-36c10.9-4.7,23.5-1.8,31.4,7.1
					C49.6,9.5,49.5,9.9,49.2,10.1L49.2,10.1L49.2,10.1z"/>
				<path class="st0" d="M5.3,13.9c2.1,0.7,3.3,3,2.7,5.1s-3,3.3-5.1,2.7s-3.3-3-2.7-5.1c0,0,0,0,0,0l0,0
					C0.9,14.4,3.2,13.3,5.3,13.9z"/>
				<path class="st0" d="M15.8,63.7C15.4,63.9,15,64,14.6,64c-1.2,0-2.2-1-2.2-2.2c0-0.1,0-0.2,0-0.3c-0.1-1.3,0.8-2.4,2-2.6
					c0.1,0,0.2,0,0.3,0c0.4,0,0.7,0.1,1.1,0.2l-0.1,0.5c-0.3-0.1-0.6-0.2-0.9-0.2c-1.1,0-1.8,0.7-1.8,2s0.6,2,1.7,2
					c0.3,0,0.7-0.1,1-0.2L15.8,63.7z"/>
				<path class="st0" d="M18.4,64c-0.9,0-1.6-0.8-1.6-1.7c0,0,0,0,0,0c0,0,0-0.1,0-0.1c-0.1-0.9,0.5-1.8,1.5-1.9c0,0,0.1,0,0.1,0
					c0.9,0,1.6,0.8,1.6,1.7c0,0,0,0.1,0,0.1c0.1,0.9-0.5,1.8-1.5,1.9C18.5,64,18.4,64,18.4,64L18.4,64L18.4,64z M18.4,63.5
					c0.6,0,1-0.6,1-1.4c0-0.6-0.3-1.4-1-1.4s-1,0.7-1,1.4S17.8,63.5,18.4,63.5L18.4,63.5z"/>
				<path class="st0" d="M22.7,64c-0.9,0-1.6-0.8-1.6-1.7c0,0,0,0,0,0c0,0,0-0.1,0-0.1c-0.1-0.9,0.5-1.8,1.4-1.9c0.1,0,0.1,0,0.2,0
					c0.9,0,1.6,0.8,1.6,1.7c0,0,0,0.1,0,0.1c0.1,0.9-0.5,1.8-1.5,1.9C22.8,64,22.8,64,22.7,64L22.7,64L22.7,64z M22.7,63.5
					c0.6,0,1-0.6,1-1.4c0-0.6-0.3-1.4-1-1.4s-1,0.7-1,1.4S22.1,63.5,22.7,63.5z"/>
				<path class="st0" d="M25.7,61.4v-1.1h0.5V61l0,0c0.1-0.4,0.5-0.7,0.9-0.8h0.2v0.6h-0.2c-0.4,0-0.7,0.3-0.8,0.8
					c0,0.1,0,0.2,0,0.3v1.9h-0.6L25.7,61.4z"/>
				<path class="st0" d="M31.3,58.7v5.2h-0.5v-0.7l0,0c-0.2,0.4-0.6,0.7-1.1,0.7c-0.8,0-1.4-0.7-1.4-1.8s0.6-1.9,1.4-1.9
					c0.4,0,0.8,0.2,1,0.5l0,0v-2.1L31.3,58.7L31.3,58.7z M30.7,61.8c0-0.1,0-0.2,0-0.3c-0.1-0.4-0.4-0.7-0.8-0.7c-0.6,0-1,0.6-1,1.4
					s0.3,1.3,1,1.3c0.4,0,0.8-0.3,0.9-0.8c0-0.1,0-0.2,0-0.3L30.7,61.8z"/>
				<path class="st0" d="M33.2,59.7c-0.2,0-0.4-0.2-0.4-0.4c0,0,0,0,0,0l0,0c0-0.2,0.1-0.4,0.3-0.4c0,0,0,0,0,0l0,0
					c0.2,0,0.4,0.2,0.3,0.5C33.5,59.6,33.4,59.7,33.2,59.7L33.2,59.7z M32.9,63.9v-3.6h0.6v3.6H32.9z"/>
				<path class="st0" d="M35.1,61.3v-1h0.5v0.6l0,0c0.2-0.4,0.6-0.7,1.1-0.7c0.5,0,1.1,0.3,1.1,1.5v2.1h-0.6v-2
					c0-0.6-0.2-1.1-0.7-1.1c-0.4,0-0.7,0.3-0.8,0.7c0,0.1,0,0.2,0,0.3v2.1h-0.6L35.1,61.3z"/>
				<path class="st0" d="M41.8,63c0,0.3,0,0.6,0,0.9h-0.5v-0.5l0,0c-0.2,0.3-0.6,0.5-1,0.5c-0.5,0-1-0.4-1-0.9v-0.1
					c0-0.8,0.7-1.3,2-1.3v-0.1c0-0.3-0.1-0.8-0.7-0.8c-0.3,0-0.6,0.1-0.8,0.3l-0.1-0.4c0.3-0.2,0.7-0.3,1.1-0.3c1,0,1.2,0.7,1.2,1.5
					L41.8,63L41.8,63z M41.2,62c-0.7,0-1.4,0.1-1.4,0.8c-0.1,0.3,0.1,0.6,0.4,0.6c0,0,0,0,0,0h0.1c0.4,0,0.7-0.2,0.8-0.6
					c0-0.1,0-0.1,0-0.2L41.2,62z"/>
				<path class="st0" d="M45.7,63.8c-0.3,0.1-0.6,0.2-0.9,0.2c-0.9,0-1.6-0.7-1.6-1.6c0,0,0,0,0,0c0-0.1,0-0.1,0-0.2
					c-0.1-1,0.6-1.8,1.6-1.9c0,0,0,0,0,0h0.2c0.3,0,0.6,0.1,0.8,0.2l-0.1,0.5c-0.2-0.1-0.4-0.2-0.7-0.2c-0.7,0.1-1.2,0.8-1.1,1.6
					c0.1,0.6,0.5,1,1.1,1.1c0.2,0,0.5-0.1,0.7-0.2L45.7,63.8z"/>
				<path class="st0" d="M47.3,59.7c-0.2,0-0.4-0.2-0.4-0.4c0,0,0,0,0,0l0,0c0-0.2,0.1-0.4,0.3-0.4c0,0,0,0,0,0l0,0
					c0.2,0,0.4,0.2,0.3,0.5C47.6,59.6,47.5,59.7,47.3,59.7L47.3,59.7z M47,63.9v-3.6h0.6v3.6H47z"/>
				<path class="st0" d="M50.6,64c-0.9,0-1.6-0.8-1.6-1.7c0,0,0,0,0,0c0,0,0-0.1,0-0.1c-0.1-0.9,0.5-1.8,1.5-1.9c0,0,0.1,0,0.1,0
					c0.9,0,1.6,0.8,1.6,1.7c0,0,0,0.1,0,0.1c0.1,0.9-0.5,1.8-1.4,1.9C50.7,64,50.6,64,50.6,64L50.6,64L50.6,64z M50.6,63.5
					c0.6,0,1-0.6,1-1.4c0-0.6-0.3-1.4-1-1.4s-1,0.7-1,1.4S50,63.5,50.6,63.5L50.6,63.5z M51.4,58.8l-0.8,1h-0.4l0.6-1H51.4z"/>
				<path class="st0" d="M53.6,61.3v-1h0.5v0.6l0,0c0.2-0.4,0.6-0.7,1.1-0.7c0.5,0,1.1,0.3,1.1,1.5v2.1h-0.6v-2
					c0-0.6-0.2-1.1-0.7-1.1c-0.4,0-0.7,0.3-0.8,0.7c0,0.1,0,0.2,0,0.3v2.1h-0.6L53.6,61.3z"/>
				<path class="st0" d="M62.8,58.7v5.2h-0.5v-0.7l0,0c-0.2,0.4-0.6,0.7-1.1,0.7c-0.8,0-1.4-0.7-1.4-1.8s0.7-1.9,1.5-1.9
					c0.4,0,0.8,0.2,1,0.5l0,0v-2.1L62.8,58.7L62.8,58.7z M62.2,61.8c0-0.1,0-0.2,0-0.3c-0.1-0.4-0.4-0.7-0.8-0.7c-0.6,0-1,0.6-1,1.4
					s0.3,1.3,1,1.3c0.4,0,0.8-0.3,0.9-0.8c0-0.1,0-0.2,0-0.3L62.2,61.8z"/>
				<path class="st0" d="M64.8,62.2c-0.1,0.6,0.3,1.1,0.9,1.2c0.1,0,0.1,0,0.2,0c0.3,0,0.6-0.1,0.9-0.2l0.1,0.5
					c-0.3,0.2-0.7,0.2-1.1,0.2c-0.9,0-1.6-0.7-1.6-1.6c0-0.1,0-0.1,0-0.2c0-1.1,0.6-2,1.5-2s1.3,1,1.3,1.7c0,0.1,0,0.2,0,0.3
					L64.8,62.2z M66.5,61.8c0-0.4-0.2-1-0.8-1s-0.8,0.6-0.9,1H66.5z"/>
				<path class="st0" d="M71.1,58.9v2.9c0,1.1,0.4,1.6,1,1.6s1.1-0.5,1.1-1.6v-2.9h0.6v2.9c0,1.5-0.7,2.1-1.7,2.1s-1.6-0.6-1.6-2.1
					v-2.9H71.1z"/>
				<path class="st0" d="M75.5,61.3v-1H76v0.6l0,0c0.2-0.4,0.6-0.7,1.1-0.7c0.4,0,1.1,0.3,1.1,1.5v2.1h-0.6v-2
					c0-0.6-0.2-1.1-0.8-1.1c-0.4,0-0.7,0.3-0.8,0.7c0,0.1,0,0.2,0,0.3v2.1h-0.6L75.5,61.3L75.5,61.3z"/>
				<path class="st0" d="M80.1,59.7c-0.2,0-0.4-0.2-0.4-0.3c0,0,0,0,0,0l0,0c0-0.2,0.1-0.4,0.3-0.4c0,0,0,0,0,0l0,0
					c0.2,0,0.4,0.2,0.4,0.4c0,0,0,0,0,0C80.4,59.6,80.3,59.7,80.1,59.7L80.1,59.7z M79.8,63.9v-3.6h0.6v3.6H79.8z"/>
				<path class="st0" d="M82.3,60.3l0.7,2c0.1,0.3,0.2,0.7,0.3,0.9l0,0c0.1-0.3,0.2-0.6,0.3-0.9l0.7-2h0.6l-1.3,3.6h-0.5l-1.2-3.6
					H82.3z"/>
				<path class="st0" d="M86.2,62.2c-0.1,0.6,0.3,1.1,0.9,1.2c0.1,0,0.1,0,0.2,0c0.3,0,0.6-0.1,0.9-0.2l0.1,0.5
					C88,63.9,87.6,64,87.2,64c-0.9,0-1.6-0.7-1.6-1.6c0-0.1,0-0.1,0-0.2c0-1.1,0.6-2,1.5-2s1.3,1,1.3,1.7c0,0.1,0,0.2,0,0.3
					L86.2,62.2z M87.9,61.8c0-0.4-0.2-1-0.8-1s-0.8,0.6-0.9,1H87.9z"/>
				<path class="st0" d="M89.9,61.4v-1.1h0.5V61l0,0c0.1-0.4,0.5-0.7,0.9-0.8h0.2v0.6h-0.2c-0.4,0-0.7,0.3-0.8,0.8v2.2h-0.6
					L89.9,61.4z"/>
				<path class="st0" d="M92.6,63.2c0.2,0.2,0.5,0.2,0.8,0.2c0.4,0,0.7-0.2,0.7-0.5s-0.2-0.5-0.6-0.7c-0.6-0.2-0.9-0.6-0.9-1
					c0-0.6,0.4-1,1-1h0.1c0.3,0,0.6,0.1,0.8,0.2L94.3,61c-0.2-0.1-0.4-0.2-0.7-0.2c-0.3,0-0.5,0.2-0.5,0.4v0.1
					c0,0.3,0.2,0.4,0.6,0.6c0.5,0.1,0.8,0.6,0.8,1.1c0,0.6-0.5,1-1,1.1h-0.1c-0.3,0-0.6-0.1-0.9-0.2L92.6,63.2z"/>
				<path class="st0" d="M96.3,59.7c-0.2,0-0.4-0.2-0.4-0.4c0,0,0,0,0,0l0,0c0-0.2,0.1-0.4,0.3-0.4c0,0,0,0,0,0l0,0
					c0.2,0,0.4,0.2,0.3,0.5C96.6,59.6,96.5,59.7,96.3,59.7L96.3,59.7z M96,63.9v-3.6h0.6v3.6H96z"/>
				<path class="st0" d="M101,58.7v5.2h-0.5v-0.7l0,0c-0.2,0.4-0.6,0.7-1.1,0.7c-0.8,0-1.4-0.7-1.4-1.8s0.7-1.9,1.4-1.9
					c0.4,0,0.8,0.2,1,0.5l0,0v-2.1L101,58.7L101,58.7z M100.4,61.8c0-0.1,0-0.2,0-0.3c-0.1-0.4-0.4-0.7-0.8-0.7c-0.6,0-1,0.6-1,1.4
					s0.3,1.3,1,1.3c0.4,0,0.8-0.3,0.8-0.8c0-0.1,0-0.2,0-0.3L100.4,61.8z"/>
				<path class="st0" d="M104.9,63c0,0.3,0,0.6,0,0.9h-0.5v-0.5l0,0c-0.2,0.3-0.6,0.5-1,0.5c-0.5,0-1-0.4-1-0.9v-0.1
					c0-0.8,0.7-1.3,2-1.3v-0.1c0-0.3-0.1-0.8-0.7-0.8c-0.3,0-0.6,0.1-0.8,0.3l-0.1-0.4c0.3-0.2,0.7-0.3,1.1-0.3c1,0,1.2,0.7,1.2,1.5
					L104.9,63L104.9,63z M104.4,62c-0.7,0-1.4,0.1-1.4,0.8c-0.1,0.3,0.1,0.6,0.4,0.6c0,0,0,0,0,0h0.1c0.4,0,0.7-0.2,0.8-0.6
					c0-0.1,0-0.1,0-0.2L104.4,62L104.4,62z"/>
				<path class="st0" d="M109.3,58.7v5.2h-0.5v-0.7l0,0c-0.2,0.4-0.6,0.7-1.1,0.7c-0.8,0-1.4-0.7-1.4-1.8s0.7-1.9,1.4-1.9
					c0.4,0,0.8,0.2,1,0.5l0,0v-2.1L109.3,58.7L109.3,58.7z M108.7,61.8c0-0.1,0-0.2,0-0.3c-0.1-0.4-0.5-0.8-0.9-0.7
					c-0.6,0-1,0.6-1,1.4s0.3,1.3,1,1.3c0.4,0,0.8-0.3,0.8-0.8c0-0.1,0-0.2,0-0.3L108.7,61.8z"/>
				<path class="st0" d="M113.8,62.3l-0.5,1.6h-0.6l1.5-5h0.7l1.5,5h-0.6l-0.5-1.6H113.8z M115.2,61.8l-0.4-1.4
					c-0.1-0.3-0.2-0.6-0.2-0.9l0,0c-0.1,0.3-0.1,0.6-0.2,0.9l-0.4,1.4L115.2,61.8z"/>
				<path class="st0" d="M117.8,58.7h0.6v2.2l0,0c0.2-0.4,0.6-0.7,1.1-0.7c0.8,0,1.4,0.7,1.4,1.8c0,1.3-0.7,1.9-1.4,1.9
					c-0.5,0-0.9-0.2-1.1-0.7l0,0v0.6h-0.5C117.8,63.9,117.8,58.7,117.8,58.7z M118.4,62.4c0,0.1,0,0.2,0,0.2
					c0.1,0.4,0.4,0.7,0.9,0.8c0.7,0,1-0.5,1-1.4s-0.3-1.3-1-1.3c-0.4,0-0.8,0.4-0.9,0.8c0,0.1,0,0.2,0,0.3L118.4,62.4z"/>
				<path class="st0" d="M122.5,59.7c-0.2,0-0.4-0.2-0.4-0.3c0,0,0,0,0,0l0,0c0-0.2,0.1-0.4,0.3-0.4c0,0,0,0,0,0l0,0
					c0.2,0,0.4,0.2,0.4,0.4c0,0,0,0,0,0C122.8,59.6,122.7,59.7,122.5,59.7L122.5,59.7z M122.2,63.9v-3.6h0.6v3.6H122.2z"/>
				<path class="st0" d="M124.8,62.2c-0.1,0.6,0.3,1.1,0.9,1.2c0.1,0,0.1,0,0.2,0c0.3,0,0.6-0.1,0.9-0.2l0.1,0.5
					c-0.3,0.2-0.7,0.2-1.1,0.2c-0.9,0-1.6-0.7-1.6-1.6c0-0.1,0-0.1,0-0.2c0-1.1,0.6-2,1.5-2s1.3,1,1.3,1.7c0,0.1,0,0.2,0,0.3
					L124.8,62.2z M126.5,61.8c0-0.4-0.2-1-0.8-1s-0.8,0.6-0.9,1H126.5z"/>
				<path class="st0" d="M128.4,61.4v-1.1h0.6V61l0,0c0.1-0.4,0.5-0.7,0.9-0.8h0.1v0.6h-0.2c-0.4,0-0.8,0.4-0.8,0.8
					c0,0.1,0,0.2,0,0.3v1.9h-0.6L128.4,61.4z"/>
				<path class="st0" d="M132.2,59.5v0.8h0.8v0.5h-0.8v1.9c0,0.4,0.1,0.7,0.4,0.7c0.1,0,0.2,0,0.3,0v0.5c-0.2,0.1-0.3,0.1-0.5,0.1
					c-0.2,0-0.5-0.1-0.6-0.3c-0.2-0.3-0.3-0.6-0.2-0.9v-2H131v-0.5h0.5v-0.7L132.2,59.5z"/>
				<path class="st0" d="M136.6,63c0,0.3,0,0.6,0,0.9h-0.5l-0.1-0.5l0,0c-0.2,0.3-0.6,0.5-1,0.5c-0.5,0-1-0.4-1-0.9v-0.1
					c0-0.8,0.7-1.3,1.9-1.3v-0.1c0-0.3-0.1-0.8-0.7-0.8c-0.3,0-0.6,0.1-0.9,0.3l-0.1-0.4c0.3-0.2,0.7-0.3,1.1-0.3
					c1,0,1.2,0.7,1.2,1.5L136.6,63L136.6,63z M136,62c-0.6,0-1.4,0.1-1.4,0.8c-0.1,0.3,0.1,0.6,0.4,0.6h0.1c0.4,0,0.7-0.2,0.8-0.6
					c0-0.1,0-0.1,0-0.2L136,62L136,62z"/>
				<path class="st0" d="M13.4,66.1v4.9h-0.8v-4.9H13.4z"/>
				<path class="st0" d="M14.3,68.6v-1.1H15V68l0,0c0.2-0.4,0.6-0.6,1-0.7c0.6,0,1.1,0.4,1.1,1.5V71h-0.8v-2c0-0.5-0.2-0.9-0.6-0.9
					c-0.3,0-0.6,0.2-0.6,0.5c0,0.1,0,0.2,0,0.3V71h-0.8L14.3,68.6L14.3,68.6z"/>
				<path class="st0" d="M18,68.6v-1.1h0.7V68l0,0c0.2-0.4,0.6-0.6,1-0.7c0.6,0,1.1,0.4,1.1,1.5V71H20v-2c0-0.5-0.2-0.9-0.6-0.9
					c-0.3,0-0.6,0.2-0.6,0.5c0,0.1,0,0.2,0,0.3V71H18L18,68.6L18,68.6z"/>
				<path class="st0" d="M23.2,71.2c-0.9,0-1.6-0.8-1.6-1.7c0-0.1,0-0.1,0-0.2c-0.1-0.9,0.6-1.8,1.5-1.9h0.2c0.9,0,1.6,0.8,1.6,1.7
					c0,0,0,0,0,0c0,0.1,0,0.1,0,0.2c0.1,0.9-0.5,1.8-1.4,1.9c0,0,0,0,0,0H23.2L23.2,71.2z M23.2,70.5c0.5,0,0.8-0.5,0.8-1.2
					c0-0.6-0.2-1.2-0.8-1.2s-0.8,0.7-0.8,1.2S22.7,70.5,23.2,70.5L23.2,70.5z"/>
				<path class="st0" d="M25.9,67.5l0.5,1.8c0.1,0.3,0.2,0.6,0.2,0.9l0,0c0.1-0.3,0.1-0.6,0.2-0.9l0.5-1.8h0.9l-1.2,3.6h-0.8
					L25,67.5H25.9z"/>
				<path class="st0" d="M31.2,70.2c0,0.3,0,0.6,0,0.9h-0.7l-0.1-0.4l0,0c-0.2,0.3-0.6,0.5-1,0.5c-0.6,0-1-0.4-1-1v-0.1
					c0-0.9,0.7-1.4,2-1.3v-0.1c0-0.3-0.2-0.6-0.5-0.7h-0.1c-0.3,0-0.6,0.1-0.9,0.3l-0.2-0.6c0.4-0.2,0.8-0.3,1.2-0.3
					c1,0,1.3,0.7,1.3,1.5L31.2,70.2L31.2,70.2z M30.4,69.3c-0.6,0-1.1,0.1-1.1,0.7c0,0.2,0.1,0.5,0.4,0.5c0,0,0,0,0,0h0.1
					c0.3,0,0.6-0.2,0.6-0.5c0-0.1,0-0.1,0-0.2L30.4,69.3z"/>
				<path class="st0" d="M34.4,71c-0.3,0.1-0.6,0.2-0.9,0.2c-0.9,0-1.7-0.7-1.7-1.6c0,0,0,0,0,0c0-1,0.7-1.9,1.6-2.1h0.2
					c0.3,0,0.5,0.1,0.8,0.2l-0.2,0.7c-0.2-0.1-0.4-0.1-0.7-0.1c-0.6,0-1,0.4-1,1c0,0,0,0,0,0.1c0,0,0,0.1,0,0.1
					c-0.1,0.5,0.3,1.1,0.8,1.1c0,0,0,0,0,0h0.1c0.2,0,0.4,0,0.7-0.1L34.4,71z"/>
				<path class="st0" d="M35.3,67c-0.3,0-0.5-0.2-0.5-0.4c0,0,0,0,0,0c0-0.3,0.2-0.5,0.5-0.5s0.5,0.2,0.5,0.5l0,0
					C35.8,66.7,35.7,67,35.3,67C35.4,67,35.4,67,35.3,67L35.3,67z M34.9,71.1v-3.6h0.8v3.6L34.9,71.1z"/>
				<path class="st0" d="M38,71.2c-0.9,0-1.6-0.8-1.6-1.7c0-0.1,0-0.1,0-0.2c-0.1-0.9,0.5-1.8,1.5-1.9c0,0,0,0,0,0H38
					c0.9,0,1.6,0.8,1.6,1.7c0,0.1,0,0.1,0,0.2c0.1,0.9-0.6,1.8-1.5,1.9H38L38,71.2z M38,70.5c0.5,0,0.8-0.5,0.8-1.2
					c0-0.6-0.2-1.2-0.8-1.2s-0.8,0.7-0.8,1.2S37.5,70.5,38,70.5z M39,66l-0.8,1h-0.5l0.6-1H39z"/>
				<path class="st0" d="M40.3,68.6v-1.1h0.6L41,68l0,0c0.2-0.4,0.6-0.6,1-0.7c0.6,0,1.2,0.4,1.2,1.5V71h-0.8v-2
					c0-0.5-0.2-0.9-0.6-0.9c-0.3,0-0.6,0.2-0.7,0.5c0,0.1,0,0.2,0,0.3V71h-0.8L40.3,68.6L40.3,68.6z"/>
				<path class="st0" d="M47.9,68.9h-1.7v1.5h1.9v0.7h-2.7v-4.9H48v0.7h-1.8v1.3h1.7L47.9,68.9z"/>
				<path class="st0" d="M51.6,65.8v5.2h-0.7v-0.6l0,0c-0.2,0.4-0.6,0.6-1,0.7c-0.8,0-1.4-0.7-1.4-1.8s0.7-1.9,1.5-1.9
					c0.4,0,0.7,0.2,0.9,0.5l0,0v-2L51.6,65.8z M50.8,69v-0.2c0-0.4-0.3-0.6-0.7-0.7c-0.5,0-0.8,0.5-0.8,1.2s0.3,1.1,0.8,1.1
					c0.4,0,0.7-0.3,0.7-0.6c0-0.1,0-0.2,0-0.3L50.8,69z"/>
				<path class="st0" d="M55.4,70v1.1h-0.7v-0.5l0,0c-0.2,0.4-0.6,0.6-1,0.7c-0.6,0-1.1-0.4-1.1-1.6v-2.1h0.8v2c0,0.6,0.2,1,0.6,1
					c0.3,0,0.6-0.2,0.7-0.5c0-0.1,0-0.2,0-0.3v-2.2h0.8L55.4,70L55.4,70z"/>
				<path class="st0" d="M58.6,71c-0.3,0.1-0.6,0.2-0.9,0.2c-0.9,0-1.6-0.7-1.6-1.6c0,0,0,0,0,0c0-0.1,0-0.1,0-0.2
					c-0.1-1,0.6-1.8,1.6-1.9c0,0,0,0,0,0h0.2c0.3,0,0.5,0.1,0.8,0.2l-0.2,0.7c-0.2-0.1-0.4-0.1-0.7-0.1c-0.6,0-1,0.4-1,1
					c0,0,0,0,0,0.1c0,0,0,0.1,0,0.1c-0.1,0.5,0.3,1.1,0.8,1.2c0,0,0,0,0,0h0.2c0.2,0,0.4,0,0.7-0.1L58.6,71z"/>
				<path class="st0" d="M61.6,70.2c0,0.3,0,0.6,0,0.9h-0.7l-0.1-0.4l0,0c-0.2,0.3-0.6,0.5-1,0.5c-0.6,0-1-0.4-1-1v-0.1
					c0-0.9,0.7-1.4,2-1.3v-0.1c0-0.3-0.2-0.6-0.5-0.7h-0.2c-0.3,0-0.6,0.1-0.9,0.3l-0.2-0.6c0.4-0.2,0.8-0.3,1.2-0.3
					c1,0,1.3,0.7,1.3,1.5L61.6,70.2L61.6,70.2z M60.8,69.3c-0.6,0-1.1,0.1-1.1,0.7c0,0.2,0.1,0.5,0.4,0.5c0,0,0,0,0,0h0.1
					c0.3,0,0.6-0.2,0.7-0.5c0-0.1,0-0.1,0-0.2L60.8,69.3z"/>
				<path class="st0" d="M63.3,66.6v0.9h0.8v0.7h-0.8v1.6c0,0.4,0.1,0.7,0.4,0.7c0.1,0,0.2,0,0.3,0V71c-0.2,0.1-0.4,0.1-0.6,0.1
					c-0.3,0-0.5-0.1-0.7-0.3c-0.2-0.3-0.3-0.6-0.3-1v-1.7H62v-0.7h0.5v-0.7L63.3,66.6z"/>
				<path class="st0" d="M65.1,67c-0.3,0-0.5-0.2-0.5-0.5c0,0,0,0,0,0c0-0.3,0.2-0.5,0.5-0.5c0,0,0,0,0,0c0.3,0,0.5,0.2,0.5,0.5
					c0,0,0,0,0,0l0,0C65.5,66.7,65.3,66.9,65.1,67L65.1,67z M64.6,71.1v-3.6h0.8v3.6L64.6,71.1z"/>
				<path class="st0" d="M66.8,67.5l0.5,1.8c0.1,0.3,0.2,0.6,0.2,0.9l0,0c0.1-0.3,0.1-0.6,0.2-0.9l0.5-1.8h0.9l-1.2,3.6h-0.8
					l-1.2-3.6H66.8z"/>
				<path class="st0" d="M72.1,70.2c0,0.3,0,0.6,0,0.9h-0.7l-0.1-0.4l0,0c-0.2,0.3-0.6,0.5-1,0.5c-0.6,0-1-0.4-1-1v-0.1
					c0-0.9,0.7-1.4,2-1.3v-0.1c0-0.3-0.2-0.6-0.5-0.7h-0.2c-0.3,0-0.6,0.1-0.9,0.3l-0.2-0.6c0.4-0.2,0.8-0.3,1.2-0.3
					c1,0,1.3,0.7,1.3,1.5L72.1,70.2L72.1,70.2z M71.3,69.3c-0.6,0-1.1,0.1-1.1,0.7c0,0.2,0.1,0.5,0.4,0.5c0,0,0,0,0,0h0.1
					c0.3,0,0.6-0.2,0.7-0.5c0-0.1,0-0.1,0-0.2L71.3,69.3z"/>
				<path class="st0" d="M74.4,67.5l0.7,2.1c0.1,0.2,0.2,0.5,0.2,0.7l0,0c0.1-0.2,0.1-0.5,0.2-0.7l0.7-2.1h0.7L76,70.1
					c-0.2,0.8-0.6,1.6-1.1,2.2c-0.2,0.2-0.4,0.3-0.7,0.4L74,72.1c0.2-0.1,0.4-0.2,0.5-0.3c0.2-0.2,0.4-0.4,0.5-0.7
					c0-0.1,0-0.1,0-0.2c0-0.1,0-0.1,0-0.2l-1.2-3.2L74.4,67.5L74.4,67.5z"/>
				<path class="st0" d="M81,68.8h-1.8v1.8h2v0.5h-2.6v-4.9h2.4v0.5h-1.8v1.6H81V68.8z"/>
				<path class="st0" d="M84.6,65.8v5.2h-0.5v-0.7l0,0c-0.2,0.4-0.6,0.7-1.1,0.7c-0.8,0-1.4-0.7-1.4-1.8s0.7-1.9,1.4-1.9
					c0.4,0,0.8,0.2,0.9,0.6l0,0v-2.2L84.6,65.8L84.6,65.8z M84,69c0-0.1,0-0.2,0-0.3c-0.1-0.4-0.4-0.7-0.8-0.7c-0.6,0-1,0.6-1,1.4
					s0.3,1.3,1,1.3c0.4,0,0.8-0.3,0.9-0.8c0-0.1,0-0.2,0-0.3L84,69z"/>
				<path class="st0" d="M88.2,70.1v1h-0.5v-0.6l0,0c-0.2,0.4-0.6,0.6-1.1,0.7c-0.5,0-1.1-0.3-1.1-1.6v-2.1h0.6v2
					c0,0.7,0.2,1.1,0.7,1.1c0.4,0,0.7-0.3,0.8-0.6c0-0.1,0.1-0.2,0.1-0.3v-2.2h0.6L88.2,70.1L88.2,70.1z"/>
				<path class="st0" d="M91.4,70.9c-0.3,0.1-0.6,0.2-0.9,0.2c-0.9,0-1.6-0.7-1.6-1.6c0-0.1,0-0.1,0-0.2c-0.1-1,0.6-1.8,1.6-1.9
					c0,0,0,0,0,0h0.2c0.3,0,0.6,0.1,0.8,0.2l-0.1,0.5c-0.2-0.1-0.4-0.2-0.7-0.2c-0.7,0-1.1,0.6-1.1,1.3c-0.1,0.7,0.4,1.2,1.1,1.3
					c0,0,0,0,0,0c0.2,0,0.5-0.1,0.7-0.2L91.4,70.9z"/>
				<path class="st0" d="M94.3,70.2c0,0.3,0,0.6,0,0.8h-0.5l-0.1-0.4l0,0c-0.2,0.3-0.6,0.5-1,0.5c-0.6,0-1-0.4-1-1v-0.1
					c0-0.9,0.7-1.3,2-1.3v-0.1c0-0.3-0.1-0.8-0.7-0.8c-0.3,0-0.6,0.1-0.8,0.3L92,67.8c0.3-0.2,0.7-0.3,1.1-0.3c1,0,1.2,0.7,1.2,1.4
					L94.3,70.2L94.3,70.2z M93.7,69.2c-0.6,0-1.4,0.1-1.4,0.8c-0.1,0.3,0.1,0.6,0.4,0.6c0,0,0,0,0,0c0,0,0.1,0,0.1,0
					c0.4,0,0.7-0.2,0.8-0.6c0-0.1,0-0.1,0-0.2L93.7,69.2L93.7,69.2z"/>
				<path class="st0" d="M97.5,70.9c-0.3,0.1-0.6,0.2-0.9,0.2c-0.9,0-1.6-0.7-1.6-1.6c0,0,0,0,0,0c0-0.1,0-0.1,0-0.2
					c-0.1-1,0.6-1.8,1.6-1.9c0,0,0,0,0,0h0.2c0.3,0,0.6,0.1,0.8,0.2l-0.1,0.5c-0.2-0.1-0.4-0.2-0.7-0.2c-0.7,0-1.1,0.6-1.1,1.3
					c-0.1,0.7,0.4,1.2,1.1,1.3c0,0,0,0,0,0c0.2,0,0.5-0.1,0.7-0.2L97.5,70.9z"/>
				<path class="st0" d="M98.4,66.9c-0.2,0-0.4-0.2-0.4-0.3c0,0,0,0,0,0l0,0c0-0.2,0.1-0.4,0.3-0.4l0,0c0.2,0,0.4,0.2,0.3,0.4
					C98.7,66.8,98.5,66.9,98.4,66.9L98.4,66.9z M98.1,71.1v-3.6h0.6v3.6H98.1z"/>
				<path class="st0" d="M100.9,71.2c-0.9,0-1.6-0.8-1.6-1.7c0,0,0-0.1,0-0.1c-0.1-0.9,0.5-1.8,1.4-1.9c0.1,0,0.1,0,0.2,0
					c0.9,0,1.6,0.8,1.6,1.7c0,0,0,0.1,0,0.1c0.1,0.9-0.5,1.8-1.5,1.9C101,71.1,100.9,71.1,100.9,71.2L100.9,71.2z M100.9,70.7
					c0.6,0,1-0.6,1-1.4c0-0.6-0.3-1.3-1-1.3s-1,0.7-1,1.4S100.3,70.7,100.9,70.7C100.9,70.7,100.9,70.7,100.9,70.7z M101.8,66
					l-0.8,1h-0.4l0.6-1L101.8,66z"/>
				<path class="st0" d="M103.2,68.5v-1h0.5v0.6l0,0c0.2-0.4,0.6-0.6,1.1-0.7c0.4,0,1.1,0.3,1.1,1.5v2.1h-0.6V69c0-0.6-0.2-1-0.8-1
					c-0.4,0-0.7,0.3-0.8,0.6c0,0.1,0,0.2,0,0.3v2.2h-0.6L103.2,68.5L103.2,68.5z"/>
				<path class="st0" d="M110.4,70.2c0,0.3,0,0.6,0,0.8H110l-0.1-0.4l0,0c-0.2,0.3-0.6,0.5-1,0.5c-0.6,0-1-0.4-1-1v-0.1
					c0-0.9,0.7-1.3,1.9-1.3v-0.1c0-0.3-0.1-0.8-0.7-0.8c-0.3,0-0.6,0.1-0.8,0.3l-0.1-0.4c0.3-0.2,0.7-0.3,1.1-0.3
					c1,0,1.2,0.7,1.2,1.4L110.4,70.2L110.4,70.2z M109.9,69.2c-0.7,0-1.4,0.1-1.4,0.8c-0.1,0.3,0.1,0.6,0.4,0.6c0,0,0,0,0,0
					c0,0,0.1,0,0.1,0c0.4,0,0.7-0.2,0.8-0.6c0-0.1,0-0.1,0-0.2L109.9,69.2L109.9,69.2z"/>
				<path class="st0" d="M112.7,66.2c0.4-0.1,0.8-0.1,1.2-0.1c0.7,0,1.3,0.2,1.8,0.7c0.5,0.5,0.7,1.1,0.7,1.8c0,0.7-0.2,1.4-0.7,1.9
					c-0.5,0.5-1.3,0.8-2,0.7c-0.4,0-0.7,0-1.1-0.1V66.2z M113.2,70.6c0.2,0,0.4,0,0.6,0c1.2,0,1.9-0.8,1.9-2.1
					c0.1-0.9-0.5-1.8-1.4-1.9c-0.1,0-0.2,0-0.4,0c-0.2,0-0.4,0-0.7,0.1L113.2,70.6L113.2,70.6z"/>
				<path class="st0" d="M117.3,66.9c-0.2,0-0.4-0.2-0.4-0.4c0,0,0,0,0,0l0,0c0-0.2,0.1-0.4,0.3-0.4l0,0c0.2,0,0.4,0.2,0.3,0.4
					C117.6,66.8,117.5,66.9,117.3,66.9L117.3,66.9z M117,71.1v-3.6h0.6v3.6H117z"/>
				<path class="st0" d="M118.4,70.4c0.2,0.1,0.5,0.2,0.8,0.2c0.4,0,0.7-0.2,0.7-0.5s-0.2-0.5-0.6-0.7s-0.8-0.6-0.8-1
					c0-0.6,0.4-1,1-1h0.1c0.3,0,0.5,0.1,0.8,0.2l-0.1,0.5c-0.2-0.1-0.4-0.2-0.7-0.2c-0.3,0-0.5,0.2-0.5,0.4v0.1
					c0,0.3,0.2,0.4,0.6,0.6s0.8,0.5,0.8,1.1c0,0.6-0.5,1.1-1.1,1.1h-0.1c-0.3,0-0.6-0.1-0.9-0.2L118.4,70.4z"/>
				<path class="st0" d="M121.8,66.7v0.8h0.8V68h-0.8v1.9c0,0.4,0.1,0.7,0.4,0.7c0.1,0,0.2,0,0.3,0v0.5c-0.2,0.1-0.3,0.1-0.5,0.1
					c-0.2,0-0.5-0.1-0.7-0.3c-0.2-0.3-0.2-0.6-0.2-0.9v-2h-0.5v-0.5h0.5v-0.7L121.8,66.7z"/>
				<path class="st0" d="M125.5,70.2c0,0.3,0,0.6,0,0.8H125l-0.1-0.4l0,0c-0.2,0.3-0.6,0.5-1,0.5c-0.6,0-1-0.4-1-1v-0.1
					c0-0.9,0.7-1.3,2-1.3v-0.1c0-0.3-0.1-0.8-0.7-0.8c-0.3,0-0.6,0.1-0.8,0.3l-0.1-0.4c0.3-0.2,0.7-0.3,1.1-0.3c1,0,1.2,0.7,1.2,1.4
					L125.5,70.2L125.5,70.2z M124.9,69.2c-0.7,0-1.4,0.1-1.4,0.8c-0.1,0.3,0.1,0.6,0.4,0.6c0,0,0,0,0,0c0,0,0.1,0,0.1,0
					c0.4,0,0.7-0.2,0.8-0.6c0-0.1,0-0.1,0-0.2L124.9,69.2L124.9,69.2z"/>
				<path class="st0" d="M126.3,68.5v-1h0.5v0.6l0,0c0.2-0.4,0.6-0.6,1.1-0.7c0.4,0,1.1,0.3,1.1,1.5v2.1h-0.6V69c0-0.6-0.2-1-0.8-1
					c-0.4,0-0.7,0.3-0.8,0.6c0,0.1,0,0.2,0,0.3v2.2h-0.6L126.3,68.5L126.3,68.5z"/>
				<path class="st0" d="M132.3,70.9c-0.3,0.1-0.6,0.2-0.9,0.2c-0.9,0-1.6-0.7-1.6-1.6c0-0.1,0-0.1,0-0.2c-0.1-1,0.6-1.8,1.6-1.9
					c0,0,0,0,0,0c0.3,0,0.6,0,0.9,0.2l-0.1,0.5c-0.2-0.1-0.4-0.2-0.6-0.2c-0.7,0-1.1,0.6-1.1,1.3c-0.1,0.7,0.4,1.2,1.1,1.3
					c0,0,0,0,0,0c0.2,0,0.5-0.1,0.7-0.2L132.3,70.9z"/>
				<path class="st0" d="M133.2,66.9c-0.2,0-0.4-0.2-0.4-0.4c0,0,0,0,0,0l0,0c0-0.2,0.1-0.4,0.3-0.4l0,0c0.2,0,0.4,0.2,0.4,0.4
					C133.5,66.8,133.3,66.9,133.2,66.9L133.2,66.9z M132.9,71.1v-3.6h0.6v3.6H132.9z"/>
				<path class="st0" d="M136.6,70.2c0,0.3,0,0.6,0,0.8h-0.5v-0.4l0,0c-0.2,0.3-0.6,0.5-1,0.5c-0.6,0-1-0.4-1-1v-0.1
					c0-0.9,0.7-1.3,2-1.3v-0.1c0-0.3-0.1-0.8-0.7-0.8c-0.3,0-0.6,0.1-0.9,0.3l-0.1-0.4c0.3-0.2,0.7-0.3,1.1-0.3c1,0,1.2,0.7,1.2,1.4
					L136.6,70.2L136.6,70.2z M136.1,69.2c-0.6,0-1.4,0.1-1.4,0.8c-0.1,0.3,0.1,0.6,0.4,0.6c0,0,0,0,0,0c0,0,0.1,0,0.1,0
					c0.4,0,0.7-0.2,0.8-0.6c0-0.1,0-0.1,0-0.2L136.1,69.2L136.1,69.2z"/>
			</g>
		</g>
	</g>
</g>
</svg>
